<svg xmlns="http://www.w3.org/2000/svg">
<path d="M942.185 733.888l-400.955 157.455c-51.821 21.345-80.027 18.43-125.997 0.966l-313.995-113.826c-41.899-15.27-43.1-23.605-44.612-66.433l-14.789-467.318c-2.41-54.945-1.31-66.259 46.421-86.977l370.9-162.575c38.62-16.554 63.752-15.286 90.267-6.431l363.299 112.924c43.832 14.568 49.971 19.177 51.638 73.521l15.355 499.55c1.321 34.684-11.348 49.297-37.532 59.145zM507.43 246.564c-15.539-219.26-17.562-219.351-256.516-118.38-146.058 61.712-173.352 81.556-170.119 177.633l10.95 325.341c2.534 75.298 6.396 81.867 154.161 16.035 281.39-125.369 280.598-131.518 261.524-400.63zM448.271 599.893l-221.71 97.026c-69.024 30.2-89.223 54.872 35.636 100.068 215.463 77.994 216.508 77.857 390.921 10.085 190.778-74.122 263.001-107.43 139.159-155.623-147.763-57.504-255.94-90.094-344.006-51.556zM934.371 420.573c-8.22-269.823-18.064-279.916-240.349-346.879-140.607-42.345-162.727-51.147-157.694 24.025l21.948 327.819c6.423 95.914 15.121 102.793 189.286 167.485 190.611 70.798 193.798 56.905 186.809-172.45zM306.158 489.438c-9.878-119.018-143.519-26.429-191.279-133.030-63.655-142.085 117.93-196.11 230.432-242.81 97.616-40.522 137.039 9.72 140.929 131.972 8.351 262.607-168.028 389.15-180.082 243.867v0zM654.511 110.018c173.535-9.211 272.549 114.755 254.119 370.883-8.695 120.84-138.868 113.407-128.752-5.539 4.721-55.528-42.609-161.982-109.672-171.12-131.83-17.956-137.604-187.756-15.694-194.234l-0.002 0.010zM709.291 536.702c-149.265-8.381-142.137-100.115-96.757-157.693 105.409-133.748 253.15 166.476 96.757 157.693zM579.614 609.067c289.891 56.731 260.859 145.238 25.199 176.506-216.774 28.761-227.893-216.173-25.199-176.506z" />
</svg>